<?xml version="1.0" standalone="no"?>
<!DOCTYPE svg PUBLIC "-//W3C//DTD SVG 20010904//EN"
 "http://www.w3.org/TR/2001/REC-SVG-20010904/DTD/svg10.dtd">
<svg version="1.0" xmlns="http://www.w3.org/2000/svg"
 width="180.000000pt" height="180.000000pt" viewBox="0 0 180.000000 180.000000"
 preserveAspectRatio="xMidYMid meet">

<g transform="translate(0.000000,180.000000) scale(0.100000,-0.100000)"
fill="#000000" stroke="none">
<path d="M850 1793 c-39 -14 -688 -389 -713 -411 -15 -14 -32 -42 -37 -61 -13
-49 -13 -795 0 -843 6 -20 23 -47 38 -60 15 -13 184 -112 376 -222 338 -193
349 -198 394 -194 38 4 112 42 392 202 190 109 355 207 368 218 12 12 26 38
32 57 13 48 13 794 0 842 -5 19 -22 47 -37 61 -16 14 -183 113 -373 222 -295
168 -351 196 -385 195 -22 0 -47 -3 -55 -6z m-3 -459 c-3 -3 -12 -4 -19 -1 -8
3 -5 6 6 6 11 1 17 -2 13 -5z m-47 -8 c0 -2 -7 -7 -16 -10 -8 -3 -12 -2 -9 4
6 10 25 14 25 6z m260 -16 c8 -5 11 -10 5 -10 -5 0 -17 5 -25 10 -8 5 -10 10
-5 10 6 0 17 -5 25 -10z m60 -36 c0 -2 -9 0 -20 6 -11 6 -20 13 -20 16 0 2 9
0 20 -6 11 -6 20 -13 20 -16z m-447 -19 c-3 -9 -8 -14 -10 -11 -3 3 -2 9 2 15
9 16 15 13 8 -4z m357 -128 l-125 -122 116 120 c75 77 115 125 112 135 -5 12
-3 13 8 2 11 -10 -8 -34 -111 -135z m-245 -7 c60 -60 107 -110 105 -110 -3 0
-55 50 -115 110 -60 61 -107 110 -105 110 3 0 55 -49 115 -110z m425 47 c0 -1
-53 -54 -117 -117 l-118 -115 115 118 c107 109 120 122 120 114z m44 -23 c3
-8 2 -12 -4 -9 -6 3 -10 10 -10 16 0 14 7 11 14 -7z m35 -89 c0 -5 -4 -3 -9 5
-5 8 -9 22 -9 30 0 16 17 -16 18 -35z m18 -77 c-3 -7 -5 -2 -5 12 0 14 2 19 5
13 2 -7 2 -19 0 -25z m-592 -168 c-66 -66 -125 -120 -131 -120 -6 0 -18 7 -25
17 -13 15 -12 15 9 2 21 -13 27 -9 140 106 64 66 119 119 122 117 2 -1 -50
-57 -115 -122z m510 -107 c9 4 14 3 10 -3 -13 -21 -34 -6 -145 108 l-115 117
117 -114 c83 -82 121 -112 133 -108z m-718 145 c-3 -8 -6 -5 -6 6 -1 11 2 17
5 13 3 -3 4 -12 1 -19z m483 -63 c35 -36 62 -65 59 -65 -2 0 -34 29 -69 65
-35 36 -62 65 -59 65 2 0 34 -29 69 -65z m-317 -160 c-3 -9 3 -22 13 -31 18
-14 18 -14 -3 -4 -23 10 -30 30 -16 43 10 11 13 8 6 -8z m164 -91 c-3 -3 -12
-4 -19 -1 -8 3 -5 6 6 6 11 1 17 -2 13 -5z m150 0 c-3 -3 -12 -4 -19 -1 -8 3
-5 6 6 6 11 1 17 -2 13 -5z"/>
</g>
</svg>
