<?xml version="1.0" encoding="UTF-8" standalone="no"?>
<svg
   xmlns:dc="http://purl.org/dc/elements/1.1/"
   xmlns:cc="http://creativecommons.org/ns#"
   xmlns:rdf="http://www.w3.org/1999/02/22-rdf-syntax-ns#"
   xmlns:svg="http://www.w3.org/2000/svg"
   xmlns="http://www.w3.org/2000/svg"
   xmlns:sodipodi="http://sodipodi.sourceforge.net/DTD/sodipodi-0.dtd"
   xmlns:inkscape="http://www.inkscape.org/namespaces/inkscape"
   width="400"
   height="400"
   version="1.1"
   id="svg157"
   sodipodi:docname="cityQuestIconSvgWIP.svg"
   inkscape:version="1.0.2 (e86c870879, 2021-01-15, custom)">
  <metadata
     id="metadata161">
    <rdf:RDF>
      <cc:Work
         rdf:about="">
        <dc:format>image/svg+xml</dc:format>
        <dc:type
           rdf:resource="http://purl.org/dc/dcmitype/StillImage" />
        <dc:title></dc:title>
      </cc:Work>
    </rdf:RDF>
  </metadata>
  <sodipodi:namedview
     pagecolor="#ffffff"
     bordercolor="#666666"
     borderopacity="1"
     objecttolerance="10"
     gridtolerance="10"
     guidetolerance="10"
     inkscape:pageopacity="0"
     inkscape:pageshadow="2"
     inkscape:window-width="1920"
     inkscape:window-height="1027"
     id="namedview159"
     showgrid="false"
     inkscape:zoom="1.4142136"
     inkscape:cx="20.779547"
     inkscape:cy="308.72268"
     inkscape:window-x="-8"
     inkscape:window-y="-8"
     inkscape:window-maximized="1"
     inkscape:current-layer="svg157" />
  <defs
     id="defs149" />
  <path
     fill="#141414"
     d="M 156,6 A 12365,12365 0 0 1 23,84 48,48 0 0 0 10,111 v 181 c 4,17 11,24 35,38 a 1299,1299 0 0 1 76,43 105625,105625 0 0 0 36,21 l 11,6 h 64 l 2,-1 a 1427,1427 0 0 1 73,-42 l 27,-15 c 41,-24 42,-24 47,-30 4,-7 9,-16 9,-21 v -2 a 6024,6024 0 0 0 0,-180 c 0,-9 -9,-23 -17,-29 A 2638,2638 0 0 0 236,2 l -3,-2 h -66 l -11,6 m 64,97 c 19,4 34,13 34,19 1,5 1,5 -24,30 -25,25 -25,24 -30,24 -4,0 -4,0 -29,-24 -25,-25 -25,-25 -25,-30 1,-7 21,-17 39,-20 6,-1 30,0 35,1 m -86,37 48,47 c 2,4 3,7 1,10 -1,3 -46,48 -48,49 -9,4 -16,-5 -23,-27 -4,-14 -4,-36 -1,-49 7,-23 15,-34 23,-30 m 139,0 c 4,1 9,9 13,19 9,24 8,51 -3,74 -6,13 -11,17 -18,12 l -47,-47 c -2,-3 -2,-6 0,-9 2,-4 44,-47 48,-49 h 7 m -68,70 c 4,2 47,46 48,49 3,5 1,9 -8,14 a 92,92 0 0 1 -89,0 c -9,-5 -11,-8 -9,-14 l 48,-49 h 10"
     id="path153"
     style="fill-rule:evenodd;fill:#141414;fill-opacity:1" />
  <g
     inkscape:groupmode="layer"
     id="layer1"
     inkscape:label="CenterObject">
    <path
       fill="#0e9c0a"
       d="m -153.15569,154.83494 c -18,3 -38,13 -39,20 0,5 0,5 25,30 25,24 25,24 29,24 5,0 5,1 30,-24 25.000001,-25 25.000001,-25 24.000001,-30 0,-6 -15,-15 -34.000001,-19 -5,-1 -29,-2 -35,-1 m -57,38 c -7,2 -17,24 -18,40 -2,18 0,34 6,49 6,16 11,21 19,17 2,-1 47,-46 48,-49 3,-6 3,-6 -20,-30 -29,-29 -30,-29 -35,-27 m 138.000001,0 c -4,2 -46.000001,45 -48.000001,49 -3,6 -3,6 24.000001,33 25,26 26,26 30,25 6,-2 13,-15 18,-32 3,-13 2,-34 -1,-46 -7,-24 -14,-33 -23,-29 m -68.406991,67.89535 c -3,1 -3.59301,3.10465 -32.59301,32.10465 -20,20 -20,21 -18,26 2,4 14,11 26,15 12,4 33,5 47,2 14,-3 31.000001,-12 34.000001,-17 2,-5 1,-6 -18.000001,-26 -31,-32 -32.40699,-33.10465 -38.40699,-32.10465"
       id="path151-2"
       sodipodi:nodetypes="cccssccccccsccccsccccccscssccc"
       style="fill-rule:evenodd" />
  </g>
  <path
     style="fill:#141414;fill-opacity:1;stroke:none;stroke-width:0.5"
     d="m 162.7743,396.7965 c -6.91799,-3.76902 -31.9873,-18.36896 -51.25,-29.84713 -21.51544,-12.82052 -36.44505,-21.26786 -57,-32.25126 -18.650508,-9.96577 -27.193018,-15.68142 -33.848039,-22.64716 -4.410577,-4.6165 -6.979338,-8.95207 -8.968145,-15.13652 l -1.433815,-4.45862 v -91.02628 c 0,-82.30073 0.07804,-91.36938 0.814143,-94.60578 1.509037,-6.63473 5.069167,-14.013885 9.3822,-19.44668 1.676028,-2.111165 3.426389,-3.517725 6.899699,-5.54449 C 29.93002,80.338945 43.9493,72.17861 58.5243,63.6985 83.022065,49.445071 119.58269,27.960968 145.11806,12.813458 150.94462,9.3571552 158.18504,5.1627542 161.20787,3.492566 l 5.49606,-3.0367053 h 33.01347 33.01348 l 5.39671,2.9481693 c 2.96819,1.6214932 14.28421,7.784023 25.14671,13.694511 34.22842,18.624322 68.02898,38.030124 101.5,58.273864 11.79704,7.135015 16.36507,11.794365 21.40554,21.833455 4.18823,8.34169 3.83735,-1.06472 3.83278,102.75 l -0.004,92.25 -1.1562,3.25 c -2.0344,5.71852 -7.64423,15.98088 -10.14516,18.55908 -1.2744,1.31377 -4.1994,3.60025 -6.5,5.08105 -10.44978,6.72613 -44.88702,26.42324 -74.9329,42.85948 -15.50789,8.48341 -36.89769,20.75484 -50.96295,29.2377 -6.48288,3.90988 -12.50713,7.48097 -13.38722,7.93577 -1.43951,0.74389 -4.75282,0.82558 -33,0.81358 l -31.39989,-0.0133 z m 49.5,-112.89336 c 5.79249,-0.65493 16.33615,-3.29455 21.75,-5.44515 9.77941,-3.88479 17.90448,-8.91673 19.55663,-12.11165 2.00028,-3.86811 0.75663,-6.95716 -5.59229,-13.89048 -8.45564,-9.23395 -29.03426,-30.235 -35.59655,-36.32726 l -6.64898,-6.17274 h -5.56917 -5.56918 l -16.02227,16.375 c -8.81225,9.00625 -19.6866,20.10846 -24.16523,24.67159 l -8.14296,8.29659 v 2.89439 c 0,2.04885 0.30059,3.38075 1.02894,4.55925 1.33304,2.15691 6.4355,5.52452 13.54802,8.94165 15.8244,7.60267 32.80689,10.31363 51.42304,8.20881 z m 61.30001,-37.47149 c 6.36867,-3.08302 14.79543,-21.96296 17.77386,-39.82188 1.00793,-6.0436 0.86306,-22.684 -0.25599,-29.40391 -2.36906,-14.22631 -8.24502,-28.54654 -14.28439,-34.81227 l -2.34965,-2.43773 h -4.61425 -4.61425 l -6.45778,6.02122 c -6.88266,6.41737 -29.10631,29.14609 -36.06292,36.88251 -6.24702,6.94728 -7.44063,9.8049 -5.73803,13.73733 0.39801,0.91925 11.06084,11.93396 24.875,25.69586 24.41585,24.32348 25.13527,24.95431 28.64553,25.11798 0.53192,0.0248 1.91921,-0.4158 3.08287,-0.97911 z m -138.98606,-1.1e-4 c 2.95768,-1.1245 46.78805,-45.76176 48.79699,-49.69531 1.17902,-2.30854 0.99754,-5.65373 -0.4589,-8.45887 -0.49612,-0.95555 -11.66725,-12.27505 -24.82472,-25.15443 -17.54742,-17.17654 -24.35627,-23.5356 -25.54967,-23.86185 -3.12051,-0.85308 -5.1814,-0.006 -8.78246,3.60962 -2.70051,2.71146 -3.84624,4.41046 -6.12665,9.08516 -3.42514,7.02135 -6.62053,16.18921 -7.75037,22.23649 -1.2542,6.71289 -1.22187,28.90207 0.0532,36.51351 2.62675,15.68034 10.51731,32.06634 17.07864,35.46652 1.72548,0.89416 5.54918,1.02518 7.56395,0.25916 z m 69.31546,-70.69022 c 3.20759,-1.1446 7.04783,-4.52509 23.0443,-20.28546 17.78116,-17.51871 25.58806,-25.86385 26.88087,-28.73413 0.98363,-2.18386 0.84861,-4.9393 -0.35958,-7.33791 -2.70495,-5.37014 -17.93176,-13.23757 -31.19787,-16.1194 -9.23163,-2.00541 -33.02515,-2.47294 -40.93107,-0.80427 -13.30961,2.80919 -27.93726,9.60787 -33.19638,15.42908 -3.00888,3.33048 -3.12569,6.31091 -0.40245,10.269 3.13462,4.55602 36.22646,37.37149 45.02434,44.64831 4.37201,3.61613 7.1656,4.35224 11.13784,2.93478 z"
     id="path1031" />
</svg>
