<svg id="svg" version="1.1" xmlns="http://www.w3.org/2000/svg" xmlns:xlink="http://www.w3.org/1999/xlink" width="400" height="400" viewBox="0, 0, 400,400"><g id="svgg"><path id="path0" d="M185.000 102.030 C 167.125 104.757,147.171 115.313,146.490 122.403 C 146.090 126.568,146.156 126.646,171.155 151.644 C 195.979 176.467,195.904 176.404,200.379 176.396 C 205.016 176.388,204.769 176.596,229.646 151.681 C 254.682 126.607,254.711 126.573,254.306 122.365 C 253.677 115.820,239.042 107.491,220.164 102.933 C 215.421 101.788,190.739 101.154,185.000 102.030 M127.600 139.697 C 121.054 141.847,111.125 164.012,109.546 180.000 C 107.802 197.666,109.938 214.446,115.784 229.000 C 122.197 244.966,127.294 249.555,134.581 245.927 C 137.422 244.513,181.727 199.904,182.976 197.200 C 185.893 190.886,185.711 190.619,162.530 167.314 C 133.611 138.240,133.148 137.875,127.600 139.697 M266.364 140.458 C 262.353 142.425,219.956 184.897,218.005 188.902 C 214.843 195.391,214.734 195.237,241.548 222.055 C 267.372 247.882,267.649 248.105,272.336 246.824 C 277.999 245.277,285.384 231.578,289.600 214.800 C 292.769 202.188,292.493 180.747,289.004 168.594 C 282.272 145.136,275.071 136.187,266.364 140.458 M198.474 209.267 C 194.919 209.885,193.772 210.945,165.354 239.878 C 145.385 260.209,144.890 260.914,147.161 265.800 C 149.226 270.243,160.528 276.793,173.416 281.015 C 185.137 284.854,205.922 285.627,220.183 282.753 C 234.109 279.948,250.849 271.483,253.565 265.873 C 255.914 261.021,255.370 260.234,235.974 240.427 C 204.504 208.289,204.435 208.232,198.474 209.267 " stroke="none" fill="#0e9c0a" fill-rule="evenodd"></path><path id="path1" d="M156.400 6.350 C 150.350 9.825,139.010 16.314,131.200 20.770 C 123.390 25.225,114.660 30.236,111.800 31.904 C 106.420 35.041,92.337 43.080,79.800 50.171 C 38.998 73.246,26.408 80.787,22.990 84.194 C 16.977 90.189,11.531 100.817,10.585 108.400 C 10.434 109.610,10.150 110.799,9.953 111.043 C 9.229 111.943,9.750 288.579,10.488 292.034 C 14.162 309.242,20.628 316.273,45.400 329.995 C 46.720 330.727,51.400 333.391,55.800 335.917 C 60.200 338.442,65.240 341.325,67.000 342.323 C 68.760 343.321,72.270 345.346,74.800 346.821 C 77.330 348.297,83.990 352.112,89.600 355.298 C 95.210 358.484,109.430 366.586,121.200 373.301 C 132.970 380.016,143.230 385.869,144.000 386.307 C 144.770 386.745,150.470 390.005,156.667 393.552 L 167.935 400.000 200.067 399.999 L 232.200 399.998 234.400 398.671 C 236.476 397.420,239.214 395.858,257.200 385.669 C 261.270 383.364,267.300 379.906,270.600 377.985 C 273.900 376.064,282.540 371.122,289.800 367.003 C 297.060 362.883,304.800 358.471,307.000 357.197 C 309.200 355.924,321.350 348.993,334.000 341.796 C 375.192 318.361,376.132 317.753,380.809 311.527 C 385.379 305.442,389.578 295.855,389.613 291.426 C 389.620 290.532,389.890 289.451,390.213 289.024 C 391.088 287.866,391.075 112.731,390.200 111.200 C 389.886 110.650,389.622 109.437,389.614 108.505 C 389.547 100.411,380.789 85.926,372.638 80.426 C 369.768 78.489,337.974 60.116,317.600 48.621 C 313.213 46.145,303.159 40.416,295.600 36.085 C 291.970 34.005,280.360 27.350,269.800 21.295 C 259.240 15.241,247.990 8.804,244.800 6.991 C 241.610 5.178,237.560 2.865,235.800 1.850 L 232.600 0.006 200.000 0.019 L 167.400 0.032 156.400 6.350 M220.164 102.933 C 239.042 107.491,253.677 115.820,254.306 122.365 C 254.711 126.573,254.682 126.607,229.646 151.681 C 204.769 176.596,205.016 176.388,200.379 176.396 C 195.904 176.404,195.979 176.467,171.155 151.644 C 146.156 126.646,146.090 126.568,146.490 122.403 C 147.171 115.313,167.125 104.757,185.000 102.030 C 190.739 101.154,215.421 101.788,220.164 102.933 M134.369 140.384 C 137.177 141.817,179.202 183.303,181.966 187.371 C 184.271 190.763,184.576 193.735,182.976 197.200 C 181.727 199.904,137.422 244.513,134.581 245.927 C 126.196 250.102,118.566 240.816,112.158 218.637 C 108.359 205.489,108.007 182.945,111.399 170.106 C 117.573 146.743,125.847 136.037,134.369 140.384 M273.342 139.750 C 277.323 141.413,282.040 148.551,285.786 158.578 C 294.846 182.832,293.872 210.454,283.156 233.172 C 276.977 246.271,272.089 249.620,265.400 245.335 C 262.862 243.709,219.463 200.092,218.221 197.919 C 216.468 194.851,216.404 192.187,218.005 188.902 C 219.956 184.897,262.353 142.425,266.364 140.458 C 269.172 139.080,271.238 138.871,273.342 139.750 M205.200 210.386 C 208.720 212.196,251.554 255.645,253.328 259.205 C 255.935 264.437,253.855 267.888,244.868 273.241 C 219.139 288.568,181.421 288.510,155.668 273.106 C 146.899 267.860,144.932 264.571,147.396 259.278 C 148.787 256.290,191.533 212.697,195.274 210.452 C 198.184 208.705,201.883 208.680,205.200 210.386 " stroke="none" fill="#141414" fill-rule="evenodd"></path></g></svg>