<svg xmlns="http://www.w3.org/2000/svg" width="400" height="400">
  <defs/>
  <g fill-rule="evenodd">
    <path fill="#0e9c0a" d="M185 102c-18 3-38 13-39 20 0 5 0 5 25 30 25 24 25 24 29 24 5 0 5 1 30-24s25-25 24-30c0-6-15-15-34-19-5-1-29-2-35-1m-57 38c-7 2-17 24-18 40-2 18 0 34 6 49 6 16 11 21 19 17 2-1 47-46 48-49 3-6 3-6-20-30-29-29-30-29-35-27m138 0c-4 2-46 45-48 49-3 6-3 6 24 33 25 26 26 26 30 25 6-2 13-15 18-32 3-13 2-34-1-46-7-24-14-33-23-29m-68 69c-3 1-4 2-33 31-20 20-20 21-18 26 2 4 14 11 26 15s33 5 47 2 31-12 34-17c2-5 1-6-18-26-31-32-32-32-38-31"/>
    <path fill="#141414" d="M156 6A12365 12365 0 0123 84a48 48 0 00-13 27v181c4 17 11 24 35 38a1299 1299 0 0176 43 105625 105625 0 0036 21l11 6h64l2-1a1427 1427 0 0173-42l27-15c41-24 42-24 47-30 4-7 9-16 9-21v-2a6024 6024 0 000-180c0-9-9-23-17-29A2638 2638 0 00236 2l-3-2h-66l-11 6m64 97c19 4 34 13 34 19 1 5 1 5-24 30s-25 24-30 24c-4 0-4 0-29-24-25-25-25-25-25-30 1-7 21-17 39-20 6-1 30 0 35 1m-86 37l48 47c2 4 3 7 1 10-1 3-46 48-48 49-9 4-16-5-23-27-4-14-4-36-1-49 7-23 15-34 23-30m139 0c4 1 9 9 13 19 9 24 8 51-3 74-6 13-11 17-18 12l-47-47c-2-3-2-6 0-9 2-4 44-47 48-49h7m-68 70c4 2 47 46 48 49 3 5 1 9-8 14a92 92 0 01-89 0c-9-5-11-8-9-14l48-49h10"/>
  </g>
</svg>
