<svg version="1" xmlns="http://www.w3.org/2000/svg" width="429.333" height="429.333" viewBox="0 0 322.000000 322.000000"><path d="M152.6 1C147.3 2.6 27.9 71.4 24.4 74.9c-1.8 1.9-4.4 5.5-5.6 8l-2.3 4.6v147l2.3 4.6c1.2 2.5 3.6 5.9 5.2 7.6 1.6 1.6 31.1 19 65.5 38.7 60.8 34.8 62.8 35.9 68.9 36.3 3.8.4 7.9 0 10.2-.7 6-2 126.1-71 129.4-74.3 1.6-1.7 4-5.1 5.2-7.6l2.3-4.6V161c0-72.8 0-73.5-2.1-78.1-1.2-2.5-3.7-6.1-5.6-8C294.6 71.8 176 3.4 169.7 1c-3.3-1.2-13-1.2-17.1 0zm26.3 81.6c3.1.9 6.5 2 7.6 2.4 1.1.4 3.6 1.4 5.5 2.1 1.9.7 5.9 2.9 8.7 4.8 8.8 6 8.8 6.1-15.4 30.3-19.3 19.3-21 20.8-24.3 20.8-3.3 0-5.1-1.5-24.4-20.9C112.7 98 112.7 98 121.5 92.2c6.2-4.1 10.4-6.2 12.2-6.2.7 0 2.1-.4 3.1-.9 8.1-4.2 31.5-5.6 42.1-2.5zM107 111c1 .5 10.8 10 21.9 21.2 17.3 17.4 20.1 20.6 20.1 23.2 0 2.7-2.8 5.9-20.7 23.8-18.4 18.4-21.2 20.8-24 20.8-4.2 0-7-4.1-13.3-19.5-4.9-11.8-4.8-40 .1-49.7.5-1 .9-2.3.9-3 0-2.3 5.4-12 8.3-14.9 3.1-3.2 3.9-3.4 6.7-1.9zm114 .5c1.7.9 3 2 3 2.6 0 .6.8 2.3 1.8 3.7 2.6 3.8 7.2 15.3 7.2 17.9 0 1.2.5 2.5 1 2.8 1.2.8 1.4 30.5.1 33.7-.5 1.3-1.4 4.1-2.1 6.3-1.7 5.7-5.9 14.4-8.7 18.2-1.9 2.6-3.1 3.3-5.6 3.3-2.9 0-5.6-2.3-24-20.8C176 161.4 173 158 173 155.4c0-2.6 3-6 21.3-24.2 11.8-11.7 21.9-21.2 22.6-21.2.7 0 2.5.7 4.1 1.5zM185.3 188c21.6 22 22.9 23.9 19.1 27.8-1.8 1.8-6.1 4.3-11.4 6.8-1.9.8-4.2 1.9-5 2.3-8.9 4.6-33.8 6-45.5 2.6-6.7-1.9-18.8-7.4-19.3-8.7-.2-.4-.9-.8-1.5-.8-1.9 0-5.7-4.2-5.7-6.3 0-1.2 7.7-9.8 20.3-22.6 11.1-11.3 20.7-20.9 21.2-21.3.6-.4 2.4-.8 4.1-.8 2.7 0 5.6 2.6 23.7 21z"/></svg>