<svg xmlns="http://www.w3.org/2000/svg" width="500" height="500" style="width:100%;height:100%"><defs><clipPath id="a"><path d="M0 0h500v500H0z"/></clipPath></defs><g clip-path="url(#a)"><path stroke-linecap="round" stroke-linejoin="round" stroke="#109120" stroke-width="12.04" d="M150.073 315.156c-28.513-26.703-46.346-64.689-46.346-106.828 0-42.139 17.833-80.126 46.346-106.828M183.329 279.457c-18.985-17.779-30.858-43.072-30.858-71.129 0-28.057 11.873-53.35 30.858-71.129M349.927 315.156c28.513-26.703 46.346-64.689 46.346-106.828 0-42.139-17.833-80.126-46.346-106.828M316.671 279.457c18.985-17.779 30.858-43.072 30.858-71.129 0-28.057-11.873-53.35-30.858-71.129" fill="none" display="block"/><path stroke-linecap="round" stroke-linejoin="round" stroke="#B4B4B4" stroke-width="12.04" d="M249.782 258.085v162.488m-48.637-212.244c0 26.922 21.824 48.746 48.746 48.746s48.746-21.824 48.746-48.746-21.824-48.746-48.746-48.746-48.746 21.824-48.746 48.746z" fill="none" display="block"/></g></svg>