<?xml version="1.0" encoding="utf-8"?>
<!-- Generator: Adobe Illustrator 24.1.2, SVG Export Plug-In . SVG Version: 6.00 Build 0)  -->
<svg version="1.1" id="Warstwa_3" xmlns="http://www.w3.org/2000/svg" xmlns:xlink="http://www.w3.org/1999/xlink" x="0px" y="0px"
	 viewBox="0 0 430 430" style="enable-background:new 0 0 430 430;" xml:space="preserve">
<style type="text/css">
	.st0{fill:#08A88A;}
	.st1{fill:#121331;}
	.st2{fill:none;}
	.st3{fill-opacity:0;}
</style>
<g>
	<path class="st1" d="M39.84,247.11c-16.86,0-30.67-13.5-30.98-30.43c-0.01-0.56-0.01-1.12-0.01-1.68c0-17.12,13.88-31,31-31
		s31,13.88,31,31l0,0.54c0.31,17.12-13.31,31.25-30.43,31.56C40.23,247.11,40.03,247.11,39.84,247.11z"/>
	<path class="st1" d="M215,246c-17.12,0-31-13.88-31-31c0-0.54,0-1.06,0.01-1.6c0.27-17.12,14.36-30.81,31.48-30.51
		c17.12,0.27,30.78,14.37,30.51,31.48l0,0.62C246,232.12,232.12,246,215,246z"/>
	<path class="st1" d="M390.14,247.11c-16.86,0-30.67-13.5-30.98-30.43c-0.01-0.56-0.01-1.12-0.01-1.68c0-17.12,13.88-31,31-31
		s31,13.88,31,31l0,0.54c0.31,17.12-13.31,31.25-30.43,31.56C390.53,247.11,390.33,247.11,390.14,247.11z"/>
</g>
</svg>
