<svg xmlns="http://www.w3.org/2000/svg" width="500" height="500" style="width:100%;height:100%"><defs><clipPath id="z"><path d="M0 0h500v500H0z"/></clipPath><clipPath id="m"><path d="M0 0h500v500H0z"/></clipPath><clipPath id="H"><path d="M0 0h500v500H0z"/></clipPath><clipPath id="J"><path d="M0 0h500v500H0z"/></clipPath><clipPath id="v"><path d="M0 0h500v500H0z"/></clipPath><clipPath id="x"><path d="M0 0h500v500H0z"/></clipPath><clipPath id="F"><path d="M0 0h500v500H0z"/></clipPath><clipPath id="D"><path d="M0 0h500v500H0z"/></clipPath><clipPath id="B"><path d="M0 0h500v500H0z"/></clipPath><clipPath id="n"><path d="M0 0h500v500H0z"/></clipPath><clipPath id="p"><path d="M0 0h500v500H0z"/></clipPath><clipPath id="t"><path d="M0 0h500v500H0z"/></clipPath><clipPath id="r"><path d="M0 0h500v500H0z"/></clipPath><filter id="c" filterUnits="objectBoundingBox" x="0%" y="0%" width="100%" height="100%"><feComponentTransfer in="SourceGraphic"><feFuncA type="table" tableValues="1.0 0.0"/></feComponentTransfer></filter><filter id="g" filterUnits="objectBoundingBox" x="0%" y="0%" width="100%" height="100%"><feComponentTransfer in="SourceGraphic"><feFuncA type="table" tableValues="1.0 0.0"/></feComponentTransfer></filter><filter id="d" filterUnits="objectBoundingBox" x="0%" y="0%" width="100%" height="100%"><feComponentTransfer in="SourceGraphic"><feFuncA type="table" tableValues="1.0 0.0"/></feComponentTransfer></filter><filter id="h" filterUnits="objectBoundingBox" x="0%" y="0%" width="100%" height="100%"><feComponentTransfer in="SourceGraphic"><feFuncA type="table" tableValues="1.0 0.0"/></feComponentTransfer></filter><filter id="b" filterUnits="objectBoundingBox" x="0%" y="0%" width="100%" height="100%"><feComponentTransfer in="SourceGraphic"><feFuncA type="table" tableValues="1.0 0.0"/></feComponentTransfer></filter><filter id="i" filterUnits="objectBoundingBox" x="0%" y="0%" width="100%" height="100%"><feComponentTransfer in="SourceGraphic"><feFuncA type="table" tableValues="1.0 0.0"/></feComponentTransfer></filter><filter id="l" filterUnits="objectBoundingBox" x="0%" y="0%" width="100%" height="100%"><feComponentTransfer in="SourceGraphic"><feFuncA type="table" tableValues="1.0 0.0"/></feComponentTransfer></filter><filter id="e" filterUnits="objectBoundingBox" x="0%" y="0%" width="100%" height="100%"><feComponentTransfer in="SourceGraphic"><feFuncA type="table" tableValues="1.0 0.0"/></feComponentTransfer></filter><filter id="j" filterUnits="objectBoundingBox" x="0%" y="0%" width="100%" height="100%"><feComponentTransfer in="SourceGraphic"><feFuncA type="table" tableValues="1.0 0.0"/></feComponentTransfer></filter><filter id="a" filterUnits="objectBoundingBox" x="0%" y="0%" width="100%" height="100%"><feComponentTransfer in="SourceGraphic"><feFuncA type="table" tableValues="1.0 0.0"/></feComponentTransfer></filter><filter id="f" filterUnits="objectBoundingBox" x="0%" y="0%" width="100%" height="100%"><feComponentTransfer in="SourceGraphic"><feFuncA type="table" tableValues="1.0 0.0"/></feComponentTransfer></filter><filter id="k" filterUnits="objectBoundingBox" x="0%" y="0%" width="100%" height="100%"><feComponentTransfer in="SourceGraphic"><feFuncA type="table" tableValues="1.0 0.0"/></feComponentTransfer></filter><mask id="s"><g filter="url(#k)"><g display="block"><path fill="red" d="M83.533 6.38l-4.639 12.028-5.156 13.372-19.367 50.221 2.433 76.746s-24.179 9.003-16.371 24.111c11.567 0 44.727.009 53.479.009.338-14.242.324-25.585.324-25.585l.116-68.249 52.915-81.281" transform="translate(133.75 255)"/><path stroke-linecap="round" stroke-linejoin="round" fill-opacity="0" stroke="#121331" stroke-width="0" d="M217.283 261.38l-4.639 12.028-5.156 13.372-19.367 50.221 2.433 76.746s-24.179 9.003-16.371 24.111c11.567 0 44.727.009 53.479.009.338-14.242.324-25.585.324-25.585l.116-68.249 52.915-81.281"/></g></g></mask><mask id="q"><g filter="url(#j)"><g display="block"><path fill="red" d="M1113.929 421.327c-9.612 5.248-16.898 15.343-16.898 28.033v75.71h64v-75.71c0-11.465-7.054-22.234-16.953-27.881" transform="rotate(2 8222.922 -24815.537)"/><path stroke-linecap="round" stroke-linejoin="round" fill-opacity="0" stroke="#08A88A" stroke-width="0" d="M237.506 157.853c-9.79 4.91-17.423 14.744-17.866 27.427l-2.643 75.664 63.961 2.233 2.643-75.664c.4-11.458-6.274-22.466-15.97-28.455"/><path fill="red" d="M1113.929 421.327c-9.612 5.248-16.898 15.343-16.898 28.033v75.71h64v-75.71c0-11.465-7.054-22.234-16.953-27.881" transform="rotate(2 8222.922 -24815.537)"/></g></g></mask><mask id="o"><g filter="url(#i)"><g display="block"><path fill="red" d="M106.356-105.954c8.269.329 15.519 4.454 18.113 6.829 4.156 3.5 9.656 10.625 12.367 15.438l21.481 51.146s.046 35.361 0 48.014c0 13.027-7.317 28.777-31.15 21.503L127.584-25l-20.709-47.087" transform="rotate(2 -7284.487 4240.848)"/><path stroke-linecap="round" stroke-linejoin="round" fill-opacity="0" stroke="#08A88A" stroke-width="0" d="M253.555 154.63c8.252.618 15.354 4.993 17.864 7.458 4.031 3.642 9.279 10.955 11.82 15.86l19.683 51.864s-1.188 35.341-1.675 47.985c-.455 13.02-8.317 28.504-31.882 20.403l2.58-61.924-19.053-47.78"/></g></g></mask><mask id="u"><g filter="url(#l)"><g display="block"><path fill="#FFF" d="M83.533 6.38l-4.639 12.028-5.156 13.372-19.367 50.221 2.433 76.746s-24.179 9.003-16.371 24.111c11.567 0 44.727.009 53.479.009.338-14.242.324-25.585.324-25.585l.116-68.249 52.915-81.281" transform="translate(133.75 255)"/><path stroke-linecap="round" stroke-linejoin="round" fill-opacity="0" stroke="#121331" stroke-width="0" d="M217.283 261.38l-4.639 12.028-5.156 13.372-19.367 50.221 2.433 76.746s-24.179 9.003-16.371 24.111c11.567 0 44.727.009 53.479.009.338-14.242.324-25.585.324-25.585l.116-68.249 52.915-81.281"/></g></g></mask></defs><g clip-path="url(#m)"><g clip-path="url(#n)" transform="matrix(-1 0 0 1 500 -1)" display="block"><g mask="url(#o)" display="block"><g clip-path="url(#p)"><g mask="url(#q)" display="block"><g clip-path="url(#r)"><g mask="url(#s)" display="block"><g clip-path="url(#t)"><g mask="url(#u)" display="block"><path stroke-linecap="round" stroke-linejoin="round" stroke="#15C62D" stroke-width="21.672" d="M253.064 154.363c-.356-.012-2.98-.088-4.617.032-4.227.31-16.485 3.063-26.408 18.664l-29.389 43.734-57.87 23.845s3.82 31.056 34.4 18.456l42.429-18.17 49.472-69.529" fill="none"/></g><path stroke-linecap="round" stroke-linejoin="round" stroke="#848484" stroke-width="21.672" d="M280.797 262.743l10.015 64.074 46.179 48.63 17.586 16.872s-30.354 33.327-36.271 39.776c-15.168-2.726-7.101-30.099-7.101-30.099l-55.856-53.683-37.994-87.391" fill="none" display="block"/></g></g><path stroke-linecap="round" stroke-linejoin="round" stroke="#848484" stroke-width="21.672" d="M217.283 261.38l-29.162 75.621 2.433 76.746s-24.179 9.003-16.371 24.111c11.567 0 44.727.009 53.479.009.338-14.242.324-25.585.324-25.585l.116-68.249 52.915-81.281" fill="none" display="block"/></g></g><path stroke-linecap="round" stroke-linejoin="round" stroke="#15C62D" stroke-width="21.672" d="M252.737 154.426c-15.897-.555-32.44 12.005-33.097 30.854l-2.643 75.664 63.961 2.233 2.643-75.664c.584-16.725-13.906-32.495-30.864-33.087z" fill="none" display="block"/></g></g><path stroke-linecap="round" stroke-linejoin="round" stroke="#15C62D" stroke-width="21.672" d="M253.555 154.63c8.252.618 15.354 4.993 17.864 7.458 4.031 3.642 9.279 10.955 11.82 15.86l19.683 51.864s-1.188 35.341-1.675 47.985c-.455 13.02-8.317 28.504-31.882 20.403l2.58-61.924-19.053-47.78" fill="none" display="block"/><path stroke-linecap="round" stroke-linejoin="round" stroke="#848484" stroke-width="21.672" d="M229.499 127.014l19.211 1.212c11.03.696 20.624-7.76 21.32-18.788l1.105-17.517c.73-11.556-8.129-21.608-19.685-22.338l-4.507-.284c-11.556-.73-21.608 8.13-22.337 19.685l-1.913 30.308c-.252 3.995 2.81 7.47 6.806 7.722z" fill="none" display="block"/></g></g></svg>